<svg width="100%" viewBox="0 0 1149 275" fill="currentColor" xmlns="http://www.w3.org/2000/svg">
<path d="M309.48 226.86V73.73C309.48 71.4969 310.367 69.3552 311.946 67.7762C313.525 66.1971 315.667 65.31 317.9 65.31H368.14C379.267 65.31 388.77 66.3667 396.65 68.48C404.53 70.5933 410.993 73.5933 416.04 77.48C420.922 81.1722 424.752 86.0782 427.15 91.71C429.579 97.6754 430.78 104.07 430.68 110.51C430.7 114.409 430.103 118.287 428.91 122C427.706 125.705 425.858 129.168 423.45 132.23C420.782 135.582 417.607 138.497 414.04 140.87C409.83 143.657 405.266 145.87 400.47 147.45C423.803 152.703 435.47 165.32 435.47 185.3C435.544 192.184 434.143 199.003 431.36 205.3C428.614 211.414 424.51 216.821 419.36 221.11C413.638 225.796 407.064 229.331 400 231.52C391.476 234.152 382.59 235.421 373.67 235.28H317.9C315.667 235.28 313.525 234.393 311.946 232.814C310.367 231.235 309.48 229.093 309.48 226.86ZM341.1 138.86H366.38C377.113 138.86 385.263 136.9 390.83 132.98C396.397 129.06 399.177 122.83 399.17 114.29C399.17 105.443 396.663 99.1367 391.65 95.37C386.637 91.6033 378.8 89.7233 368.14 89.73H341.14L341.1 138.86ZM341.1 160.73V210.6H373.2C378.218 210.735 383.222 210.018 388 208.48C391.546 207.315 394.795 205.39 397.52 202.84C399.871 200.545 401.644 197.724 402.69 194.61C403.766 191.387 404.303 188.008 404.28 184.61C404.332 181.214 403.731 177.839 402.51 174.67C401.338 171.736 399.438 169.148 396.99 167.15C394.143 164.909 390.86 163.288 387.35 162.39C382.705 161.211 377.922 160.659 373.13 160.75L341.1 160.73Z" fill="currentColor"/>
<path d="M480.83 114.68C482.618 114.68 484.332 115.39 485.596 116.654C486.86 117.918 487.57 119.632 487.57 121.42V191.32C487.57 198.653 489.273 204.353 492.68 208.42C496.087 212.487 501.193 214.503 508 214.47C512.899 214.498 517.734 213.353 522.1 211.13C526.715 208.73 530.92 205.615 534.56 201.9V121.42C534.56 119.632 535.27 117.918 536.534 116.654C537.798 115.39 539.512 114.68 541.3 114.68H556.86C558.648 114.68 560.362 115.39 561.626 116.654C562.89 117.918 563.6 119.632 563.6 121.42V235.28H545.87C544.212 235.398 542.565 234.935 541.212 233.969C539.86 233.004 538.886 231.596 538.46 229.99L536.46 220.35C534.016 222.799 531.424 225.096 528.7 227.23C526.055 229.294 523.195 231.068 520.17 232.52C517.052 234.005 513.783 235.148 510.42 235.93C506.737 236.772 502.968 237.184 499.19 237.16C493.203 237.275 487.259 236.134 481.74 233.81C476.822 231.678 472.463 228.441 469 224.35C465.441 220.087 462.781 215.148 461.18 209.83C459.354 203.832 458.46 197.589 458.53 191.32V121.42C458.53 120.535 458.704 119.658 459.043 118.841C459.382 118.023 459.878 117.28 460.504 116.654C461.13 116.028 461.873 115.532 462.691 115.193C463.508 114.854 464.385 114.68 465.27 114.68H480.83Z" fill="currentColor"/>
<path d="M629.92 79.53C629.929 81.9473 629.407 84.337 628.39 86.53C626.394 90.9047 622.824 94.3677 618.39 96.23C616.087 97.2157 613.605 97.7161 611.1 97.7C608.66 97.7274 606.242 97.2437 604 96.28C601.828 95.3476 599.853 94.0105 598.18 92.34C596.519 90.6821 595.183 88.7286 594.24 86.58C593.261 84.3768 592.76 81.991 592.77 79.58C592.755 77.0749 593.255 74.5934 594.24 72.29C596.086 67.8581 599.587 64.3208 604 62.43C606.244 61.4615 608.666 60.9744 611.11 61C613.615 60.9839 616.097 61.4843 618.4 62.47C620.606 63.4058 622.62 64.7416 624.34 66.41C626.031 68.0978 627.388 70.0893 628.34 72.28C629.374 74.5574 629.913 77.0287 629.92 79.53ZM625.57 121.42V228.54C625.57 230.328 624.86 232.042 623.596 233.306C622.332 234.57 620.618 235.28 618.83 235.28H603.27C601.482 235.28 599.768 234.57 598.504 233.306C597.24 232.042 596.53 230.328 596.53 228.54V121.42C596.53 119.632 597.24 117.918 598.504 116.654C599.768 115.39 601.482 114.68 603.27 114.68H618.83C620.618 114.68 622.332 115.39 623.596 116.654C624.86 117.918 625.57 119.632 625.57 121.42Z" fill="currentColor"/>
<path d="M689.27 67.34V228.54C689.27 230.328 688.56 232.042 687.296 233.306C686.032 234.57 684.318 235.28 682.53 235.28H667C665.212 235.28 663.498 234.57 662.234 233.306C660.97 232.042 660.26 230.328 660.26 228.54V67.34C660.26 65.5524 660.97 63.8381 662.234 62.5741C663.498 61.3101 665.212 60.6 667 60.6H682.55C684.334 60.6053 686.043 61.3177 687.303 62.5812C688.563 63.8446 689.27 65.5559 689.27 67.34Z" fill="currentColor"/>
<path d="M806.94 235.28C805.282 235.398 803.635 234.935 802.282 233.969C800.93 233.004 799.956 231.596 799.53 229.99L797.18 218.35C794.756 221.095 792.125 223.649 789.31 225.99C786.573 228.268 783.595 230.24 780.43 231.87C777.187 233.545 773.756 234.827 770.21 235.69C766.341 236.602 762.375 237.041 758.4 237C752.135 237.103 745.935 235.704 740.321 232.92C734.707 230.137 729.841 226.049 726.13 221C721.895 215.187 718.797 208.625 717 201.66C714.725 193.072 713.635 184.213 713.76 175.33C713.689 166.885 714.921 158.48 717.41 150.41C719.611 143.146 723.16 136.362 727.87 130.41C732.29 124.867 737.866 120.355 744.21 117.19C750.866 113.94 758.194 112.306 765.6 112.42C771.525 112.262 777.415 113.366 782.88 115.66C787.617 117.778 791.952 120.701 795.69 124.3V67.3C795.69 65.5125 796.4 63.7981 797.664 62.5341C798.928 61.2701 800.642 60.56 802.43 60.56H818C819.788 60.56 821.502 61.2701 822.766 62.5341C824.03 63.7981 824.74 65.5125 824.74 67.3V235.28H806.94ZM768.27 214C773.647 214.164 778.967 212.86 783.66 210.23C788.265 207.41 792.329 203.79 795.66 199.54V145.47C792.813 141.816 789.12 138.909 784.9 137C780.936 135.34 776.677 134.499 772.38 134.53C768.271 134.475 764.2 135.318 760.45 137C756.847 138.68 753.732 141.251 751.4 144.47C748.704 148.295 746.768 152.604 745.7 157.16C744.27 163.105 743.598 169.207 743.7 175.32C743.599 181.341 744.169 187.355 745.4 193.25C746.277 197.515 747.932 201.583 750.28 205.25C752.174 208.176 754.848 210.514 758 212C761.242 213.391 764.743 214.073 768.27 214Z" fill="currentColor"/>
<path d="M856.07 228.54V114.68H873.07C876.043 114.68 878.12 115.227 879.3 116.32C880.47 117.42 881.3 119.32 881.65 121.97L883.41 136.54C887.213 129.68 892.383 123.673 898.6 118.89C904.253 114.707 911.098 112.446 918.13 112.44C924.07 112.44 928.993 113.813 932.9 116.56L929.14 138.3C929.033 139.459 928.486 140.533 927.61 141.3C926.678 141.933 925.565 142.242 924.44 142.18C922.805 142.109 921.186 141.833 919.62 141.36C916.962 140.745 914.237 140.469 911.51 140.54C905.919 140.395 900.445 142.159 895.99 145.54C895.27 146.1 894.57 146.7 893.89 147.34C887.96 152.91 885.06 161 885.06 169.13V228.55C885.06 230.338 884.35 232.052 883.086 233.316C881.822 234.58 880.108 235.29 878.32 235.29H862.81C861.924 235.29 861.047 235.115 860.228 234.776C859.41 234.437 858.667 233.939 858.041 233.312C857.415 232.685 856.918 231.941 856.58 231.122C856.242 230.303 856.069 229.426 856.07 228.54Z" fill="currentColor"/>
<path d="M994.9 268.43C994.197 270.24 993.04 271.838 991.54 273.07C990.167 274.13 988.073 274.66 985.26 274.66H963.63L986.2 226.35L937.41 114.68H962.8C964.743 114.55 966.666 115.133 968.21 116.32C969.414 117.355 970.377 118.642 971.03 120.09L996.77 182.62C997.646 184.698 998.39 186.829 999 189C999.63 191.19 1000.17 193.39 1000.64 195.58C1001.27 193.31 1001.95 191.11 1002.7 189C1003.45 186.89 1004.25 184.73 1005.11 182.53L1029.33 120.12C1029.96 118.543 1031.04 117.188 1032.44 116.23C1033.87 115.226 1035.57 114.694 1037.32 114.71H1060.59L994.9 268.43Z" fill="currentColor"/>
<path d="M1117.14 237.16C1106.72 237.16 1098.69 234.203 1093.05 228.29C1087.41 222.377 1084.59 214.207 1084.58 203.78V136.42H1072.36C1070.86 136.447 1069.41 135.904 1068.3 134.9C1067.7 134.303 1067.24 133.584 1066.95 132.792C1066.65 131.999 1066.53 131.153 1066.6 130.31V118.79L1085.99 115.62L1092.1 82.7C1092.34 81.2549 1093.12 79.9545 1094.28 79.06C1095.53 78.1635 1097.04 77.7094 1098.57 77.77H1113.57V115.77H1145.31V136.45H1113.57V201.81C1113.57 205.57 1114.57 208.51 1116.4 210.63C1117.34 211.68 1118.51 212.508 1119.81 213.056C1121.11 213.604 1122.51 213.858 1123.92 213.8C1125.46 213.843 1126.99 213.623 1128.45 213.15C1129.54 212.773 1130.6 212.322 1131.62 211.8C1132.52 211.33 1133.32 210.88 1134.03 210.45C1134.66 210.038 1135.4 209.813 1136.15 209.8C1136.91 209.771 1137.65 210 1138.26 210.45C1138.93 211.018 1139.53 211.67 1140.03 212.39L1148.72 226.5C1144.42 230.068 1139.47 232.783 1134.15 234.5C1128.66 236.285 1122.92 237.183 1117.14 237.16Z" fill="currentColor"/>
<path d="M240.22 254.52H71.89C68.908 254.52 66.0481 253.336 63.9386 251.228C61.8291 249.121 60.6427 246.262 60.64 243.28V160.23C60.6392 157.452 61.6689 154.772 63.53 152.71L138.33 69.61C140.196 67.5458 141.229 64.8624 141.229 62.08C141.229 59.2976 140.196 56.6142 138.33 54.55L132.41 48C131.346 46.8202 130.043 45.8797 128.589 45.2406C127.134 44.6015 125.56 44.2783 123.971 44.2925C122.382 44.3067 120.815 44.6579 119.372 45.3228C117.929 45.9878 116.643 46.9514 115.6 48.15L32.2 143.79C30.4138 145.838 29.4297 148.463 29.43 151.18V239.05C29.43 246.81 23.76 253.79 16.03 254.47C13.9948 254.652 11.9439 254.408 10.0081 253.754C8.07225 253.1 6.29379 252.05 4.78592 250.671C3.27805 249.292 2.0738 247.614 1.24983 245.744C0.425864 243.874 0.000221136 241.853 4.83451e-08 239.81V140.15C-0.000251838 137.433 0.983785 134.808 2.77 132.76L115.2 3.85C116.245 2.65588 117.53 1.69626 118.972 1.03415C120.414 0.372042 121.98 0.022427 123.566 0.00826094C125.153 -0.00590506 126.725 0.315698 128.178 0.951954C129.632 1.58821 130.934 2.52472 132 3.7L175.73 52.05C175.81 52.14 175.9 52.23 175.98 52.33L248.55 132.58C250.42 134.646 251.454 137.334 251.45 140.12V243.28C251.45 246.259 250.267 249.117 248.161 251.224C246.056 253.332 243.199 254.517 240.22 254.52ZM101.32 225.09H210.79C213.766 225.082 216.617 223.894 218.718 221.787C220.82 219.68 222 216.826 222 213.85V151.45C222.002 148.664 220.969 145.977 219.1 143.91L173.32 93.26C172.266 92.092 170.979 91.1583 169.541 90.5192C168.104 89.8801 166.548 89.5499 164.975 89.5499C163.402 89.5499 161.846 89.8801 160.409 90.5192C158.971 91.1583 157.684 92.092 156.63 93.26L93 164C91.1406 166.063 90.1111 168.742 90.11 171.52V213.85C90.1126 216.825 91.2936 219.678 93.3944 221.784C95.4953 223.891 98.345 225.079 101.32 225.09Z" fill="currentColor"/>
</svg>