<svg width="12" height="12" viewBox="0 0 12 12" fill="none" xmlns="http://www.w3.org/2000/svg">
<path d="M6 7C6.82843 7 7.5 6.32843 7.5 5.5C7.5 4.67157 6.82843 4 6 4C5.17157 4 4.5 4.67157 4.5 5.5C4.5 6.32843 5.17157 7 6 7Z" stroke="white" stroke-linecap="round" stroke-linejoin="round"/>
<path d="M8.8285 8.32835L6.707 10.4499C6.5195 10.6372 6.26529 10.7424 6.00025 10.7424C5.73521 10.7424 5.48101 10.6372 5.2935 10.4499L3.1715 8.32835C2.61211 7.76893 2.23117 7.0562 2.07685 6.28028C1.92252 5.50437 2.00175 4.70011 2.3045 3.96922C2.60726 3.23833 3.11995 2.61362 3.77774 2.17411C4.43554 1.73459 5.20889 1.5 6 1.5C6.79112 1.5 7.56447 1.73459 8.22226 2.17411C8.88006 2.61362 9.39275 3.23833 9.6955 3.96922C9.99826 4.70011 10.0775 5.50437 9.92316 6.28028C9.76884 7.0562 9.38789 7.76893 8.8285 8.32835Z" stroke="white" stroke-linecap="round" stroke-linejoin="round"/>
</svg>
